<svg id="visual" viewBox="0 0 900 600" width="900" height="600" xmlns="http://www.w3.org/2000/svg" xmlns:xlink="http://www.w3.org/1999/xlink" version="1.1"><rect x="0" y="0" width="900" height="600" fill="#ffffff"></rect><defs><linearGradient id="grad1_0" x1="33.3%" y1="0%" x2="100%" y2="100%"><stop offset="20%" stop-color="#ffffff" stop-opacity="1"></stop><stop offset="80%" stop-color="#ffffff" stop-opacity="1"></stop></linearGradient></defs><defs><linearGradient id="grad2_0" x1="0%" y1="0%" x2="66.7%" y2="100%"><stop offset="20%" stop-color="#ffffff" stop-opacity="1"></stop><stop offset="80%" stop-color="#ffffff" stop-opacity="1"></stop></linearGradient></defs><g transform="translate(900, 0)"><path d="M0 216.3C-31.1 216.8 -62.3 217.3 -82.8 199.9C-103.3 182.5 -113.2 147.2 -122.3 122.3C-131.4 97.4 -139.7 82.9 -155.2 64.3C-170.7 45.6 -193.5 22.8 -216.3 0L0 0Z" fill="#2E4374"></path></g><g transform="translate(0, 600)"><path d="M0 -216.3C29.2 -206.3 58.5 -196.4 72.7 -175.5C86.9 -154.7 86.1 -123.1 108.9 -108.9C131.7 -94.7 178 -98 199.9 -82.8C221.7 -67.6 219 -33.8 216.3 0L0 0Z" fill="#2E4374"></path></g></svg>