<svg id="visual" viewBox="0 0 900 600" width="900" height="600" xmlns="http://www.w3.org/2000/svg" xmlns:xlink="http://www.w3.org/1999/xlink" version="1.1"><rect x="0" y="0" width="900" height="600" fill="#FFFFFF"></rect><defs><linearGradient id="grad1_0" x1="33.3%" y1="100%" x2="100%" y2="0%"><stop offset="20%" stop-color="#ffffff" stop-opacity="1"></stop><stop offset="80%" stop-color="#ffffff" stop-opacity="1"></stop></linearGradient></defs><defs><linearGradient id="grad2_0" x1="0%" y1="100%" x2="66.7%" y2="0%"><stop offset="20%" stop-color="#ffffff" stop-opacity="1"></stop><stop offset="80%" stop-color="#ffffff" stop-opacity="1"></stop></linearGradient></defs><g transform="translate(900, 600)"><path d="M-162.2 0C-145.1 -16.5 -128 -33 -118.3 -49C-108.5 -65 -106.3 -80.5 -99 -99C-91.7 -117.5 -79.4 -138.9 -62.1 -149.9C-44.8 -160.9 -22.4 -161.6 0 -162.2L0 0Z" fill="#6600FF"></path></g><g transform="translate(0, 0)"><path d="M162.2 0C136.5 14.5 110.7 29 97 40.2C83.4 51.4 81.9 59.2 79.9 79.9C77.9 100.6 75.5 134 62.1 149.9C48.7 165.8 24.3 164 0 162.2L0 0Z" fill="#6600FF"></path></g></svg>