<svg id="visual" viewBox="0 0 900 600" width="900" height="600" xmlns="http://www.w3.org/2000/svg" xmlns:xlink="http://www.w3.org/1999/xlink" version="1.1"><rect x="0" y="0" width="900" height="600" fill="#FFFFFF"></rect><defs><linearGradient id="grad1_0" x1="33.3%" y1="0%" x2="100%" y2="100%"><stop offset="20%" stop-color="#ffffff" stop-opacity="1"></stop><stop offset="80%" stop-color="#ffffff" stop-opacity="1"></stop></linearGradient></defs><defs><linearGradient id="grad2_0" x1="0%" y1="0%" x2="66.7%" y2="100%"><stop offset="20%" stop-color="#ffffff" stop-opacity="1"></stop><stop offset="80%" stop-color="#ffffff" stop-opacity="1"></stop></linearGradient></defs><g transform="translate(900, 0)"><path d="M0 270.4C-28.8 250.7 -57.7 231.1 -91.5 220.8C-125.2 210.5 -163.9 209.7 -191.2 191.2C-218.5 172.7 -234.4 136.6 -245.8 101.8C-257.1 67 -263.7 33.5 -270.4 0L0 0Z" fill="#6600FF"></path></g><g transform="translate(0, 600)"><path d="M0 -270.4C29.5 -251.9 59.1 -233.5 92.2 -222.7C125.4 -211.9 162.1 -208.7 190.2 -190.2C218.3 -171.7 237.9 -137.8 249.8 -103.5C261.8 -69.2 266.1 -34.6 270.4 0L0 0Z" fill="#6600FF"></path></g></svg>