<svg id="visual" viewBox="0 0 900 600" width="900" height="600" xmlns="http://www.w3.org/2000/svg" xmlns:xlink="http://www.w3.org/1999/xlink" version="1.1"><rect x="0" y="0" width="900" height="600" fill="#ffffff"></rect><path d="M0 410L21.5 402.7C43 395.3 86 380.7 128.8 386.7C171.7 392.7 214.3 419.3 257.2 424.3C300 429.3 343 412.7 385.8 402.8C428.7 393 471.3 390 514.2 392C557 394 600 401 642.8 400.8C685.7 400.7 728.3 393.3 771.2 397C814 400.7 857 415.3 878.5 422.7L900 430L900 601L878.5 601C857 601 814 601 771.2 601C728.3 601 685.7 601 642.8 601C600 601 557 601 514.2 601C471.3 601 428.7 601 385.8 601C343 601 300 601 257.2 601C214.3 601 171.7 601 128.8 601C86 601 43 601 21.5 601L0 601Z" fill="#bbceea"></path><path d="M0 417L21.5 420.3C43 423.7 86 430.3 128.8 439.2C171.7 448 214.3 459 257.2 466.5C300 474 343 478 385.8 477C428.7 476 471.3 470 514.2 460.8C557 451.7 600 439.3 642.8 436.8C685.7 434.3 728.3 441.7 771.2 450C814 458.3 857 467.7 878.5 472.3L900 477L900 601L878.5 601C857 601 814 601 771.2 601C728.3 601 685.7 601 642.8 601C600 601 557 601 514.2 601C471.3 601 428.7 601 385.8 601C343 601 300 601 257.2 601C214.3 601 171.7 601 128.8 601C86 601 43 601 21.5 601L0 601Z" fill="#899dc2"></path><path d="M0 477L21.5 482.3C43 487.7 86 498.3 128.8 497.3C171.7 496.3 214.3 483.7 257.2 482C300 480.3 343 489.7 385.8 493C428.7 496.3 471.3 493.7 514.2 492.8C557 492 600 493 642.8 495.3C685.7 497.7 728.3 501.3 771.2 497.5C814 493.7 857 482.3 878.5 476.7L900 471L900 601L878.5 601C857 601 814 601 771.2 601C728.3 601 685.7 601 642.8 601C600 601 557 601 514.2 601C471.3 601 428.7 601 385.8 601C343 601 300 601 257.2 601C214.3 601 171.7 601 128.8 601C86 601 43 601 21.5 601L0 601Z" fill="#5a6f9a"></path><path d="M0 561L21.5 560.7C43 560.3 86 559.7 128.8 553.5C171.7 547.3 214.3 535.7 257.2 535.5C300 535.3 343 546.7 385.8 548.3C428.7 550 471.3 542 514.2 537.3C557 532.7 600 531.3 642.8 535.5C685.7 539.7 728.3 549.3 771.2 553.7C814 558 857 557 878.5 556.5L900 556L900 601L878.5 601C857 601 814 601 771.2 601C728.3 601 685.7 601 642.8 601C600 601 557 601 514.2 601C471.3 601 428.7 601 385.8 601C343 601 300 601 257.2 601C214.3 601 171.7 601 128.8 601C86 601 43 601 21.5 601L0 601Z" fill="#2e4374"></path></svg>